<?xml version="1.0"?>
<!DOCTYPE svg PUBLIC '-//W3C//DTD SVG 1.0//EN'
          'http://www.w3.org/TR/2001/REC-SVG-20010904/DTD/svg10.dtd'>
<svg xmlns:xlink="http://www.w3.org/1999/xlink" style="fill-opacity:1; color-rendering:auto; color-interpolation:auto; text-rendering:auto; stroke:black; stroke-linecap:square; stroke-miterlimit:10; shape-rendering:auto; stroke-opacity:1; fill:black; stroke-dasharray:none; font-weight:normal; stroke-width:1; font-family:'Dialog'; font-style:normal; stroke-linejoin:miter; font-size:12px; stroke-dashoffset:0; image-rendering:auto;" width="900" height="540" xmlns="http://www.w3.org/2000/svg"
><!--Generated by the Batik Graphics2D SVG Generator--><defs id="genericDefs"
  /><g
  ><defs id="defs1"
    ><clipPath clipPathUnits="userSpaceOnUse" id="clipPath1"
      ><path d="M0 0 L900 0 L900 540 L0 540 L0 0 Z"
      /></clipPath
    ></defs
    ><g style="fill:white; stroke:white;"
    ><rect x="0" y="0" width="900" style="clip-path:url(#clipPath1); stroke:none;" height="540"
    /></g
    ><g style="fill:white; text-rendering:optimizeSpeed; color-rendering:optimizeSpeed; image-rendering:optimizeSpeed; shape-rendering:crispEdges; stroke:white; color-interpolation:sRGB;"
    ><rect x="0" width="900" height="540" y="0" style="stroke:none;"
      /><path style="stroke:none;" d="M117 471 L815 471 L815 41 L117 41 Z"
    /></g
    ><g style="stroke-linecap:butt; fill:rgb(38,38,38); text-rendering:geometricPrecision; image-rendering:optimizeQuality; color-rendering:optimizeQuality; stroke-linejoin:round; stroke:rgb(38,38,38); color-interpolation:linearRGB; stroke-width:0.8333;"
    ><line y2="471" style="fill:none;" x1="117" x2="815.0001" y1="471"
    /></g
    ><g style="fill:rgb(0,114,178); text-rendering:optimizeSpeed; color-rendering:optimizeSpeed; image-rendering:optimizeSpeed; shape-rendering:crispEdges; stroke:rgb(0,114,178); color-interpolation:sRGB;"
    ><path style="stroke:none;" d="M185.0976 471 L185.0976 41 L151.0488 41 L151.0488 471 ZM227.6585 471 L227.6585 241.6667 L193.6098 241.6667 L193.6098 471 ZM270.2195 471 L270.2195 241.6667 L236.1707 241.6667 L236.1707 471 ZM312.7805 471 L312.7805 299 L278.7317 299 L278.7317 471 ZM355.3415 471 L355.3415 299 L321.2927 299 L321.2927 471 ZM397.9024 471 L397.9024 299 L363.8537 299 L363.8537 471 ZM440.4634 471 L440.4634 327.6667 L406.4146 327.6667 L406.4146 471 ZM483.0244 471 L483.0244 327.6667 L448.9756 327.6667 L448.9756 471 ZM525.5853 471 L525.5853 385 L491.5366 385 L491.5366 471 ZM568.1463 471 L568.1463 385 L534.0976 385 L534.0976 471 ZM610.7073 471 L610.7073 385 L576.6586 385 L576.6586 471 ZM653.2682 471 L653.2682 385 L619.2195 385 L619.2195 471 ZM695.8292 471 L695.8292 385 L661.7805 385 L661.7805 471 ZM738.3902 471 L738.3902 385 L704.3415 385 L704.3415 471 ZM780.9512 471 L780.9512 385 L746.9025 385 L746.9025 471 Z"
    /></g
    ><g style="fill:rgb(38,38,38); text-rendering:geometricPrecision; image-rendering:optimizeQuality; color-rendering:optimizeQuality; stroke-linejoin:round; stroke:rgb(38,38,38); color-interpolation:linearRGB; stroke-width:1.1667;"
    ><line y2="471" style="fill:none;" x1="117" x2="815.0001" y1="471"
      /><line y2="41" style="fill:none;" x1="117" x2="815.0001" y1="41"
      /><line y2="464.02" style="fill:none;" x1="168.0732" x2="168.0732" y1="471"
      /><line y2="464.02" style="fill:none;" x1="210.6341" x2="210.6341" y1="471"
      /><line y2="464.02" style="fill:none;" x1="253.1951" x2="253.1951" y1="471"
      /><line y2="464.02" style="fill:none;" x1="295.7561" x2="295.7561" y1="471"
      /><line y2="464.02" style="fill:none;" x1="338.3171" x2="338.3171" y1="471"
      /><line y2="464.02" style="fill:none;" x1="380.8781" x2="380.8781" y1="471"
      /><line y2="464.02" style="fill:none;" x1="423.439" x2="423.439" y1="471"
      /><line y2="464.02" style="fill:none;" x1="466" x2="466" y1="471"
      /><line y2="464.02" style="fill:none;" x1="508.561" x2="508.561" y1="471"
      /><line y2="464.02" style="fill:none;" x1="551.1219" x2="551.1219" y1="471"
      /><line y2="464.02" style="fill:none;" x1="593.6829" x2="593.6829" y1="471"
      /><line y2="464.02" style="fill:none;" x1="636.2439" x2="636.2439" y1="471"
      /><line y2="464.02" style="fill:none;" x1="678.8049" x2="678.8049" y1="471"
      /><line y2="464.02" style="fill:none;" x1="721.3658" x2="721.3658" y1="471"
      /><line y2="464.02" style="fill:none;" x1="763.9268" x2="763.9268" y1="471"
      /><line y2="47.98" style="fill:none;" x1="168.0732" x2="168.0732" y1="41"
      /><line y2="47.98" style="fill:none;" x1="210.6341" x2="210.6341" y1="41"
      /><line y2="47.98" style="fill:none;" x1="253.1951" x2="253.1951" y1="41"
      /><line y2="47.98" style="fill:none;" x1="295.7561" x2="295.7561" y1="41"
      /><line y2="47.98" style="fill:none;" x1="338.3171" x2="338.3171" y1="41"
      /><line y2="47.98" style="fill:none;" x1="380.8781" x2="380.8781" y1="41"
      /><line y2="47.98" style="fill:none;" x1="423.439" x2="423.439" y1="41"
      /><line y2="47.98" style="fill:none;" x1="466" x2="466" y1="41"
      /><line y2="47.98" style="fill:none;" x1="508.561" x2="508.561" y1="41"
      /><line y2="47.98" style="fill:none;" x1="551.1219" x2="551.1219" y1="41"
      /><line y2="47.98" style="fill:none;" x1="593.6829" x2="593.6829" y1="41"
      /><line y2="47.98" style="fill:none;" x1="636.2439" x2="636.2439" y1="41"
      /><line y2="47.98" style="fill:none;" x1="678.8049" x2="678.8049" y1="41"
      /><line y2="47.98" style="fill:none;" x1="721.3658" x2="721.3658" y1="41"
      /><line y2="47.98" style="fill:none;" x1="763.9268" x2="763.9268" y1="41"
      /><line y2="41" style="fill:none;" x1="117" x2="117" y1="471"
      /><line y2="41" style="fill:none;" x1="815.0001" x2="815.0001" y1="471"
      /><line y2="471" style="fill:none;" x1="117" x2="123.98" y1="471"
      /><line y2="327.6667" style="fill:none;" x1="117" x2="123.98" y1="327.6667"
      /><line y2="184.3333" style="fill:none;" x1="117" x2="123.98" y1="184.3333"
      /><line y2="41" style="fill:none;" x1="117" x2="123.98" y1="41"
      /><line y2="471" style="fill:none;" x1="815.0001" x2="808.0201" y1="471"
      /><line y2="327.6667" style="fill:none;" x1="815.0001" x2="808.0201" y1="327.6667"
      /><line y2="184.3333" style="fill:none;" x1="815.0001" x2="808.0201" y1="184.3333"
      /><line y2="41" style="fill:none;" x1="815.0001" x2="808.0201" y1="41"
    /></g
  ></g
><g id="editable-labels" transform="scale(1.25000000 1.25000000)"><text x="135.4293" y="392.7673" font-family="宋体" font-size="13.3333" text-anchor="middle" dominant-baseline="central" fill="rgb(38,38,38)" stroke="none" transform="rotate(0.0000 135.4293 392.7673)">S001</text><text x="169.4537" y="392.7673" font-family="宋体" font-size="13.3333" text-anchor="middle" dominant-baseline="central" fill="rgb(38,38,38)" stroke="none" transform="rotate(0.0000 169.4537 392.7673)">S002</text><text x="203.4780" y="392.7673" font-family="宋体" font-size="13.3333" text-anchor="middle" dominant-baseline="central" fill="rgb(38,38,38)" stroke="none" transform="rotate(0.0000 203.4780 392.7673)">S003</text><text x="237.5024" y="392.7673" font-family="宋体" font-size="13.3333" text-anchor="middle" dominant-baseline="central" fill="rgb(38,38,38)" stroke="none" transform="rotate(0.0000 237.5024 392.7673)">S004</text><text x="271.5268" y="392.7673" font-family="宋体" font-size="13.3333" text-anchor="middle" dominant-baseline="central" fill="rgb(38,38,38)" stroke="none" transform="rotate(0.0000 271.5268 392.7673)">S005</text><text x="305.5512" y="392.7673" font-family="宋体" font-size="13.3333" text-anchor="middle" dominant-baseline="central" fill="rgb(38,38,38)" stroke="none" transform="rotate(0.0000 305.5512 392.7673)">S006</text><text x="339.5756" y="392.7673" font-family="宋体" font-size="13.3333" text-anchor="middle" dominant-baseline="central" fill="rgb(38,38,38)" stroke="none" transform="rotate(0.0000 339.5756 392.7673)">S007</text><text x="373.6000" y="392.7673" font-family="宋体" font-size="13.3333" text-anchor="middle" dominant-baseline="central" fill="rgb(38,38,38)" stroke="none" transform="rotate(0.0000 373.6000 392.7673)">S008</text><text x="407.6244" y="392.7673" font-family="宋体" font-size="13.3333" text-anchor="middle" dominant-baseline="central" fill="rgb(38,38,38)" stroke="none" transform="rotate(0.0000 407.6244 392.7673)">S009</text><text x="441.6488" y="392.7673" font-family="宋体" font-size="13.3333" text-anchor="middle" dominant-baseline="central" fill="rgb(38,38,38)" stroke="none" transform="rotate(0.0000 441.6488 392.7673)">S010</text><text x="475.6732" y="392.7673" font-family="宋体" font-size="13.3333" text-anchor="middle" dominant-baseline="central" fill="rgb(38,38,38)" stroke="none" transform="rotate(0.0000 475.6732 392.7673)">S011</text><text x="509.6976" y="392.7673" font-family="宋体" font-size="13.3333" text-anchor="middle" dominant-baseline="central" fill="rgb(38,38,38)" stroke="none" transform="rotate(0.0000 509.6976 392.7673)">S012</text><text x="543.7220" y="392.7673" font-family="宋体" font-size="13.3333" text-anchor="middle" dominant-baseline="central" fill="rgb(38,38,38)" stroke="none" transform="rotate(0.0000 543.7220 392.7673)">S013</text><text x="577.7463" y="392.7673" font-family="宋体" font-size="13.3333" text-anchor="middle" dominant-baseline="central" fill="rgb(38,38,38)" stroke="none" transform="rotate(0.0000 577.7463 392.7673)">S014</text><text x="611.7707" y="392.7673" font-family="宋体" font-size="13.3333" text-anchor="middle" dominant-baseline="central" fill="rgb(38,38,38)" stroke="none" transform="rotate(0.0000 611.7707 392.7673)">S015</text><text x="89.6000" y="376.1006" font-family="宋体" font-size="13.3333" text-anchor="end" dominant-baseline="central" fill="rgb(38,38,38)" stroke="none" transform="rotate(0.0000 89.6000 376.1006)">0</text><text x="89.6000" y="261.2004" font-family="宋体" font-size="13.3333" text-anchor="end" dominant-baseline="central" fill="rgb(38,38,38)" stroke="none" transform="rotate(0.0000 89.6000 261.2004)">5</text><text x="89.6000" y="146.3002" font-family="宋体" font-size="13.3333" text-anchor="end" dominant-baseline="central" fill="rgb(38,38,38)" stroke="none" transform="rotate(0.0000 89.6000 146.3002)">10</text><text x="89.6000" y="31.4000" font-family="宋体" font-size="13.3333" text-anchor="end" dominant-baseline="central" fill="rgb(38,38,38)" stroke="none" transform="rotate(0.0000 89.6000 31.4000)">15</text><text x="373.8004" y="30.1006" font-family="宋体" font-size="13.3333" text-anchor="middle" dominant-baseline="central" fill="rgb(0,0,0)" stroke="none" transform="rotate(-0.0000 373.8004 30.1006)">15 区原始需求</text><text x="373.6000" y="416.1006" font-family="宋体" font-size="13.3333" text-anchor="middle" dominant-baseline="central" fill="rgb(38,38,38)" stroke="none" transform="rotate(-0.0000 373.6000 416.1006)">服务区</text><text x="21.2667" y="203.7503" font-family="宋体" font-size="13.3333" text-anchor="middle" dominant-baseline="central" fill="rgb(38,38,38)" stroke="none" transform="rotate(-90.0000 21.2667 203.7503)">货箱数</text></g></svg>
