<?xml version="1.0"?>
<!DOCTYPE svg PUBLIC '-//W3C//DTD SVG 1.0//EN'
          'http://www.w3.org/TR/2001/REC-SVG-20010904/DTD/svg10.dtd'>
<svg xmlns:xlink="http://www.w3.org/1999/xlink" style="fill-opacity:1; color-rendering:auto; color-interpolation:auto; text-rendering:auto; stroke:black; stroke-linecap:square; stroke-miterlimit:10; shape-rendering:auto; stroke-opacity:1; fill:black; stroke-dasharray:none; font-weight:normal; stroke-width:1; font-family:'Dialog'; font-style:normal; stroke-linejoin:miter; font-size:12px; stroke-dashoffset:0; image-rendering:auto;" width="756" height="468" xmlns="http://www.w3.org/2000/svg"
><!--Generated by the Batik Graphics2D SVG Generator--><defs id="genericDefs"
  /><g
  ><defs id="defs1"
    ><clipPath clipPathUnits="userSpaceOnUse" id="clipPath1"
      ><path d="M0 0 L756 0 L756 468 L0 468 L0 0 Z"
      /></clipPath
    ></defs
    ><g style="fill:white; stroke:white;"
    ><rect x="0" y="0" width="756" style="clip-path:url(#clipPath1); stroke:none;" height="468"
    /></g
    ><g style="fill:white; text-rendering:optimizeSpeed; color-rendering:optimizeSpeed; image-rendering:optimizeSpeed; shape-rendering:crispEdges; stroke:white; color-interpolation:sRGB;"
    ><rect x="0" width="756" height="468" y="0" style="stroke:none;"
      /><path style="stroke:none;" d="M98 359 L684 359 L684 30 L98 30 Z"
    /></g
    ><g style="stroke-linecap:butt; fill:rgb(38,38,38); text-rendering:geometricPrecision; image-rendering:optimizeQuality; color-rendering:optimizeQuality; stroke-linejoin:round; stroke:rgb(38,38,38); color-interpolation:linearRGB; stroke-width:0.8333;"
    ><line y2="30" style="fill:none;" x1="98" x2="98" y1="359"
    /></g
    ><g style="fill:rgb(66,140,230); text-rendering:optimizeSpeed; color-rendering:optimizeSpeed; image-rendering:optimizeSpeed; shape-rendering:crispEdges; stroke:rgb(66,140,230); color-interpolation:sRGB;"
    ><path style="stroke:none;" d="M98 249.3333 L587.2032 249.3333 L587.2032 139.6667 L98 139.6667 Z"
    /></g
    ><g style="text-rendering:geometricPrecision; stroke-width:0.8333; color-interpolation:linearRGB; color-rendering:optimizeQuality; stroke-linecap:butt; image-rendering:optimizeQuality;"
    ><path d="M98 249.3333 L587.2032 249.3333 L587.2032 139.6667 L98 139.6667 Z" style="fill:none; fill-rule:evenodd;"
    /></g
    ><g style="fill:rgb(140,38,8); text-rendering:optimizeSpeed; color-rendering:optimizeSpeed; image-rendering:optimizeSpeed; shape-rendering:crispEdges; stroke:rgb(140,38,8); color-interpolation:sRGB;"
    ><path style="stroke:none;" d="M587.2032 249.3333 L607.5652 249.3333 L607.5652 139.6667 L587.2032 139.6667 Z"
    /></g
    ><g style="stroke-linecap:butt; fill:rgb(26,26,26); text-rendering:geometricPrecision; color-rendering:optimizeQuality; image-rendering:optimizeQuality; stroke:rgb(26,26,26); color-interpolation:linearRGB; stroke-width:0.8333;"
    ><path d="M587.2032 249.3333 L607.5652 249.3333 L607.5652 139.6667 L587.2032 139.6667 Z" style="fill:none; fill-rule:evenodd;"
    /></g
    ><g style="fill:rgb(38,38,38); text-rendering:geometricPrecision; image-rendering:optimizeQuality; color-rendering:optimizeQuality; stroke-linejoin:round; stroke:rgb(38,38,38); color-interpolation:linearRGB; stroke-width:1.1667;"
    ><line y2="359" style="fill:none;" x1="98" x2="684" y1="359"
      /><line y2="353.14" style="fill:none;" x1="98" x2="98" y1="359"
      /><line y2="353.14" style="fill:none;" x1="172.269" x2="172.269" y1="359"
      /><line y2="353.14" style="fill:none;" x1="246.538" x2="246.538" y1="359"
      /><line y2="353.14" style="fill:none;" x1="320.807" x2="320.807" y1="359"
      /><line y2="353.14" style="fill:none;" x1="395.076" x2="395.076" y1="359"
      /><line y2="353.14" style="fill:none;" x1="469.3451" x2="469.3451" y1="359"
      /><line y2="353.14" style="fill:none;" x1="543.6141" x2="543.6141" y1="359"
      /><line y2="353.14" style="fill:none;" x1="617.8831" x2="617.8831" y1="359"
      /><line y2="30" style="fill:none;" x1="98" x2="98" y1="359"
      /><line y2="194.5" style="fill:none;" x1="98" x2="103.86" y1="194.5"
    /></g
  ></g
><g id="editable-labels" transform="scale(1.25000000 1.24807988)"><text x="79.6240" y="298.9963" font-family="Arial" font-size="10.0000" text-anchor="middle" dominant-baseline="central" fill="rgb(38,38,38)" stroke="none" transform="rotate(0.0000 79.6240 298.9963)">0</text><text x="139.0291" y="298.9963" font-family="Arial" font-size="10.0000" text-anchor="middle" dominant-baseline="central" fill="rgb(38,38,38)" stroke="none" transform="rotate(0.0000 139.0291 298.9963)">10</text><text x="198.4341" y="298.9963" font-family="Arial" font-size="10.0000" text-anchor="middle" dominant-baseline="central" fill="rgb(38,38,38)" stroke="none" transform="rotate(0.0000 198.4341 298.9963)">20</text><text x="257.8392" y="298.9963" font-family="Arial" font-size="10.0000" text-anchor="middle" dominant-baseline="central" fill="rgb(38,38,38)" stroke="none" transform="rotate(0.0000 257.8392 298.9963)">30</text><text x="317.2443" y="298.9963" font-family="Arial" font-size="10.0000" text-anchor="middle" dominant-baseline="central" fill="rgb(38,38,38)" stroke="none" transform="rotate(0.0000 317.2443 298.9963)">40</text><text x="376.6494" y="298.9963" font-family="Arial" font-size="10.0000" text-anchor="middle" dominant-baseline="central" fill="rgb(38,38,38)" stroke="none" transform="rotate(0.0000 376.6494 298.9963)">50</text><text x="436.0544" y="298.9963" font-family="Arial" font-size="10.0000" text-anchor="middle" dominant-baseline="central" fill="rgb(38,38,38)" stroke="none" transform="rotate(0.0000 436.0544 298.9963)">60</text><text x="495.4595" y="298.9963" font-family="Arial" font-size="10.0000" text-anchor="middle" dominant-baseline="central" fill="rgb(38,38,38)" stroke="none" transform="rotate(0.0000 495.4595 298.9963)">70</text><text x="74.6240" y="154.8618" font-family="Arial" font-size="10.0000" text-anchor="end" dominant-baseline="central" fill="rgb(38,38,38)" stroke="none" transform="rotate(0.0000 74.6240 154.8618)">Joint mission</text><text x="488.4645" y="154.8963" font-family="Helvetica" font-size="13.3333" text-anchor="start" dominant-baseline="central" fill="rgb(0,0,0)" stroke="none" transform="rotate(-0.0000 488.4645 154.8963)">68.611 kWh</text><text x="314.0243" y="21.7963" font-family="Arial" font-size="10.0000" text-anchor="middle" dominant-baseline="central" fill="rgb(0,0,0)" stroke="none" transform="rotate(-0.0000 314.0243 21.7963)">Energy</text><text x="313.9840" y="316.4963" font-family="Arial" font-size="10.0000" text-anchor="middle" dominant-baseline="central" fill="rgb(38,38,38)" stroke="none" transform="rotate(-0.0000 313.9840 316.4963)">Energy (kWh)</text><text x="203.6000" y="305.0427" font-family="Arial" font-size="9.0000" text-anchor="start" dominant-baseline="central" fill="rgb(26,26,26)" stroke="none" transform="rotate(0.0000 203.6000 305.0427)">Transport 65.869 kWh</text><circle cx="193.6000" cy="305.0427" r="2.7" fill="rgb(0,114,189)"/><text x="333.8000" y="305.0427" font-family="Arial" font-size="9.0000" text-anchor="start" dominant-baseline="central" fill="rgb(26,26,26)" stroke="none" transform="rotate(0.0000 333.8000 305.0427)">Relay 2.742 kWh</text><circle cx="323.8000" cy="305.0427" r="2.7" fill="rgb(217,83,25)"/></g></svg>
