<?xml version="1.0"?>
<!DOCTYPE svg PUBLIC '-//W3C//DTD SVG 1.0//EN'
          'http://www.w3.org/TR/2001/REC-SVG-20010904/DTD/svg10.dtd'>
<svg xmlns:xlink="http://www.w3.org/1999/xlink" style="fill-opacity:1; color-rendering:auto; color-interpolation:auto; text-rendering:auto; stroke:black; stroke-linecap:square; stroke-miterlimit:10; shape-rendering:auto; stroke-opacity:1; fill:black; stroke-dasharray:none; font-weight:normal; stroke-width:1; font-family:'Dialog'; font-style:normal; stroke-linejoin:miter; font-size:12px; stroke-dashoffset:0; image-rendering:auto;" width="863" height="540" xmlns="http://www.w3.org/2000/svg"
><!--Generated by the Batik Graphics2D SVG Generator--><defs id="genericDefs"
  /><g
  ><defs id="defs1"
    ><clipPath clipPathUnits="userSpaceOnUse" id="clipPath1"
      ><path d="M0 0 L863 0 L863 540 L0 540 L0 0 Z"
      /></clipPath
    ></defs
    ><g style="fill:white; stroke:white;"
    ><rect x="0" y="0" width="863" style="clip-path:url(#clipPath1); stroke:none;" height="540"
    /></g
    ><g style="fill:white; text-rendering:optimizeSpeed; color-rendering:optimizeSpeed; image-rendering:optimizeSpeed; shape-rendering:crispEdges; stroke:white; color-interpolation:sRGB;"
    ><rect x="0" width="863" height="540" y="0" style="stroke:none;"
      /><path style="stroke:none;" d="M112 481 L782 481 L782 41 L112 41 Z"
    /></g
    ><g style="fill-opacity:0.6; fill:rgb(0,114,178); text-rendering:optimizeSpeed; image-rendering:optimizeSpeed; color-rendering:optimizeSpeed; shape-rendering:crispEdges; stroke:rgb(0,114,178); color-interpolation:sRGB; stroke-opacity:0.6;"
    ><path style="stroke:none;" d="M294.7273 481 L294.7273 305 L142.4545 305 L142.4545 481 ZM408.9318 481 L408.9318 382 L294.7273 382 L294.7273 481 ZM523.1364 481 L523.1364 272 L408.9318 272 L408.9318 481 ZM751.5455 481 L751.5455 85 L523.1364 85 L523.1364 481 Z"
    /></g
    ><g style="text-rendering:geometricPrecision; stroke-width:0.8333; color-interpolation:linearRGB; color-rendering:optimizeQuality; image-rendering:optimizeQuality;"
    ><path d="M142.4545 481 L142.4545 305 L294.7273 305 L294.7273 481 L294.7273 481" style="fill:none; fill-rule:evenodd;"
      /><line y2="382" style="fill:none;" x1="294.7273" x2="408.9318" y1="382"
      /><path d="M408.9318 481 L408.9318 481 L408.9318 272 L523.1364 272" style="fill:none; fill-rule:evenodd;"
      /><path d="M523.1364 481 L523.1364 481 L523.1364 85 L751.5455 85 L751.5455 481" style="fill:none; fill-rule:evenodd;"
    /></g
    ><g style="fill:rgb(38,38,38); text-rendering:geometricPrecision; image-rendering:optimizeQuality; color-rendering:optimizeQuality; stroke-linejoin:round; stroke:rgb(38,38,38); color-interpolation:linearRGB; stroke-width:1.1667;"
    ><line y2="481" style="fill:none;" x1="112" x2="782" y1="481"
      /><line y2="41" style="fill:none;" x1="112" x2="782" y1="41"
      /><line y2="474.3" style="fill:none;" x1="256.6591" x2="256.6591" y1="481"
      /><line y2="474.3" style="fill:none;" x1="370.8636" x2="370.8636" y1="481"
      /><line y2="474.3" style="fill:none;" x1="447" x2="447" y1="481"
      /><line y2="474.3" style="fill:none;" x1="675.4091" x2="675.4091" y1="481"
      /><line y2="47.7" style="fill:none;" x1="256.6591" x2="256.6591" y1="41"
      /><line y2="47.7" style="fill:none;" x1="370.8636" x2="370.8636" y1="41"
      /><line y2="47.7" style="fill:none;" x1="447" x2="447" y1="41"
      /><line y2="47.7" style="fill:none;" x1="675.4091" x2="675.4091" y1="41"
      /><line y2="41" style="fill:none;" x1="112" x2="112" y1="481"
      /><line y2="41" style="fill:none;" x1="782" x2="782" y1="481"
      /><line y2="481" style="fill:none;" x1="112" x2="118.7" y1="481"
      /><line y2="426" style="fill:none;" x1="112" x2="118.7" y1="426"
      /><line y2="371" style="fill:none;" x1="112" x2="118.7" y1="371"
      /><line y2="316" style="fill:none;" x1="112" x2="118.7" y1="316"
      /><line y2="261" style="fill:none;" x1="112" x2="118.7" y1="261"
      /><line y2="206" style="fill:none;" x1="112" x2="118.7" y1="206"
      /><line y2="151" style="fill:none;" x1="112" x2="118.7" y1="151"
      /><line y2="96" style="fill:none;" x1="112" x2="118.7" y1="96"
      /><line y2="41" style="fill:none;" x1="112" x2="118.7" y1="41"
      /><line y2="481" style="fill:none;" x1="782" x2="775.2999" y1="481"
      /><line y2="426" style="fill:none;" x1="782" x2="775.2999" y1="426"
      /><line y2="371" style="fill:none;" x1="782" x2="775.2999" y1="371"
      /><line y2="316" style="fill:none;" x1="782" x2="775.2999" y1="316"
      /><line y2="261" style="fill:none;" x1="782" x2="775.2999" y1="261"
      /><line y2="206" style="fill:none;" x1="782" x2="775.2999" y1="206"
      /><line y2="151" style="fill:none;" x1="782" x2="775.2999" y1="151"
      /><line y2="96" style="fill:none;" x1="782" x2="775.2999" y1="96"
      /><line y2="41" style="fill:none;" x1="782" x2="775.2999" y1="41"
    /></g
  ></g
><g id="editable-labels" transform="scale(1.24855324 1.25000000)"><text x="206.5142" y="400.1467" font-family="宋体" font-size="13.3333" text-anchor="middle" dominant-baseline="central" fill="rgb(38,38,38)" stroke="none" transform="rotate(0.0000 206.5142 400.1467)">3</text><text x="297.8233" y="400.1467" font-family="宋体" font-size="13.3333" text-anchor="middle" dominant-baseline="central" fill="rgb(38,38,38)" stroke="none" transform="rotate(0.0000 297.8233 400.1467)">6</text><text x="358.6960" y="400.1467" font-family="宋体" font-size="13.3333" text-anchor="middle" dominant-baseline="central" fill="rgb(38,38,38)" stroke="none" transform="rotate(0.0000 358.6960 400.1467)">8</text><text x="541.3142" y="400.1467" font-family="宋体" font-size="13.3333" text-anchor="middle" dominant-baseline="central" fill="rgb(38,38,38)" stroke="none" transform="rotate(0.0000 541.3142 400.1467)">14</text><text x="85.8560" y="383.4800" font-family="宋体" font-size="13.3333" text-anchor="end" dominant-baseline="central" fill="rgb(38,38,38)" stroke="none" transform="rotate(0.0000 85.8560 383.4800)">0</text><text x="85.8560" y="339.4700" font-family="宋体" font-size="13.3333" text-anchor="end" dominant-baseline="central" fill="rgb(38,38,38)" stroke="none" transform="rotate(0.0000 85.8560 339.4700)">5</text><text x="85.8560" y="295.4600" font-family="宋体" font-size="13.3333" text-anchor="end" dominant-baseline="central" fill="rgb(38,38,38)" stroke="none" transform="rotate(0.0000 85.8560 295.4600)">10</text><text x="85.8560" y="251.4500" font-family="宋体" font-size="13.3333" text-anchor="end" dominant-baseline="central" fill="rgb(38,38,38)" stroke="none" transform="rotate(0.0000 85.8560 251.4500)">15</text><text x="85.8560" y="207.4400" font-family="宋体" font-size="13.3333" text-anchor="end" dominant-baseline="central" fill="rgb(38,38,38)" stroke="none" transform="rotate(0.0000 85.8560 207.4400)">20</text><text x="85.8560" y="163.4300" font-family="宋体" font-size="13.3333" text-anchor="end" dominant-baseline="central" fill="rgb(38,38,38)" stroke="none" transform="rotate(0.0000 85.8560 163.4300)">25</text><text x="85.8560" y="119.4200" font-family="宋体" font-size="13.3333" text-anchor="end" dominant-baseline="central" fill="rgb(38,38,38)" stroke="none" transform="rotate(0.0000 85.8560 119.4200)">30</text><text x="85.8560" y="75.4100" font-family="宋体" font-size="13.3333" text-anchor="end" dominant-baseline="central" fill="rgb(38,38,38)" stroke="none" transform="rotate(0.0000 85.8560 75.4100)">35</text><text x="85.8560" y="31.4000" font-family="宋体" font-size="13.3333" text-anchor="end" dominant-baseline="central" fill="rgb(38,38,38)" stroke="none" transform="rotate(0.0000 85.8560 31.4000)">40</text><text x="358.6960" y="423.4800" font-family="宋体" font-size="13.3333" text-anchor="middle" dominant-baseline="central" fill="rgb(38,38,38)" stroke="none" transform="rotate(-0.0000 358.6960 423.4800)">单箱质量 (kg)</text><text x="17.5227" y="207.4400" font-family="宋体" font-size="13.3333" text-anchor="middle" dominant-baseline="central" fill="rgb(38,38,38)" stroke="none" transform="rotate(-90.0000 17.5227 207.4400)">货箱数</text></g></svg>
