<?xml version="1.0"?>
<!DOCTYPE svg PUBLIC '-//W3C//DTD SVG 1.0//EN'
          'http://www.w3.org/TR/2001/REC-SVG-20010904/DTD/svg10.dtd'>
<svg xmlns:xlink="http://www.w3.org/1999/xlink" style="fill-opacity:1; color-rendering:auto; color-interpolation:auto; text-rendering:auto; stroke:black; stroke-linecap:square; stroke-miterlimit:10; shape-rendering:auto; stroke-opacity:1; fill:black; stroke-dasharray:none; font-weight:normal; stroke-width:1; font-family:'Dialog'; font-style:normal; stroke-linejoin:miter; font-size:12px; stroke-dashoffset:0; image-rendering:auto;" width="863" height="660" xmlns="http://www.w3.org/2000/svg"
><!--Generated by the Batik Graphics2D SVG Generator--><defs id="genericDefs"
  /><g
  ><defs id="defs1"
    ><clipPath clipPathUnits="userSpaceOnUse" id="clipPath1"
      ><path d="M0 0 L863 0 L863 660 L0 660 L0 0 Z"
      /></clipPath
    ></defs
    ><g style="fill:white; stroke:white;"
    ><rect x="0" y="0" width="863" style="clip-path:url(#clipPath1); stroke:none;" height="660"
    /></g
    ><g style="fill:white; text-rendering:optimizeSpeed; color-rendering:optimizeSpeed; image-rendering:optimizeSpeed; shape-rendering:crispEdges; stroke:white; color-interpolation:sRGB;"
    ><rect x="0" width="863" height="660" y="0" style="stroke:none;"
      /><path style="stroke:none;" d="M112 509 L782 509 L782 43 L112 43 Z"
    /></g
    ><g style="fill:rgb(38,38,38); text-rendering:geometricPrecision; image-rendering:optimizeQuality; color-rendering:optimizeQuality; stroke-linejoin:round; stroke:rgb(38,38,38); color-interpolation:linearRGB; stroke-width:1.1667;"
    ><line y2="509" style="fill:none;" x1="112" x2="782" y1="509"
      /><line y2="502.3" style="fill:none;" x1="112" x2="112" y1="509"
      /><line y2="502.3" style="fill:none;" x1="190.8235" x2="190.8235" y1="509"
      /><line y2="502.3" style="fill:none;" x1="269.6471" x2="269.6471" y1="509"
      /><line y2="502.3" style="fill:none;" x1="348.4706" x2="348.4706" y1="509"
      /><line y2="502.3" style="fill:none;" x1="427.2941" x2="427.2941" y1="509"
      /><line y2="502.3" style="fill:none;" x1="506.1176" x2="506.1176" y1="509"
      /><line y2="502.3" style="fill:none;" x1="584.9412" x2="584.9412" y1="509"
      /><line y2="502.3" style="fill:none;" x1="663.7647" x2="663.7647" y1="509"
      /><line y2="502.3" style="fill:none;" x1="742.5883" x2="742.5883" y1="509"
      /><line y2="43" style="fill:none;" x1="112" x2="112" y1="509"
      /><line y2="493.4667" style="fill:none;" x1="112" x2="118.7" y1="493.4667"
      /><line y2="462.4" style="fill:none;" x1="112" x2="118.7" y1="462.4"
      /><line y2="431.3333" style="fill:none;" x1="112" x2="118.7" y1="431.3333"
      /><line y2="400.2667" style="fill:none;" x1="112" x2="118.7" y1="400.2667"
      /><line y2="369.2" style="fill:none;" x1="112" x2="118.7" y1="369.2"
      /><line y2="338.1333" style="fill:none;" x1="112" x2="118.7" y1="338.1333"
      /><line y2="307.0667" style="fill:none;" x1="112" x2="118.7" y1="307.0667"
      /><line y2="276" style="fill:none;" x1="112" x2="118.7" y1="276"
      /><line y2="244.9333" style="fill:none;" x1="112" x2="118.7" y1="244.9333"
      /><line y2="213.8667" style="fill:none;" x1="112" x2="118.7" y1="213.8667"
      /><line y2="182.8" style="fill:none;" x1="112" x2="118.7" y1="182.8"
      /><line y2="151.7333" style="fill:none;" x1="112" x2="118.7" y1="151.7333"
      /><line y2="120.6667" style="fill:none;" x1="112" x2="118.7" y1="120.6667"
      /><line y2="89.6" style="fill:none;" x1="112" x2="118.7" y1="89.6"
      /><line y2="58.5333" style="fill:none;" x1="112" x2="118.7" y1="58.5333"
    /></g
    ><g transform="translate(309.0588,499.0587)" style="fill:rgb(0,114,178); text-rendering:geometricPrecision; color-rendering:optimizeQuality; image-rendering:optimizeQuality; color-interpolation:linearRGB; stroke:rgb(0,114,178);"
    ><circle r="4.4096" style="stroke:none;" cx="0" cy="0"
      /><circle r="4.4096" style="stroke:none;" cx="0" transform="translate(0,-31.0667)" cy="0"
      /><circle r="4.4096" style="stroke:none;" cx="0" transform="translate(0,-62.1333)" cy="0"
      /><circle r="4.4096" style="stroke:none;" cx="0" transform="translate(0,-93.2)" cy="0"
      /><circle r="4.4096" style="stroke:none;" cx="0" transform="translate(0,-124.2667)" cy="0"
      /><circle r="4.4096" style="stroke:none;" cx="0" transform="translate(0,-155.3333)" cy="0"
      /><circle r="4.4096" style="stroke:none;" cx="0" transform="translate(0,-186.4)" cy="0"
      /><circle r="4.4096" style="stroke:none;" cx="0" transform="translate(0,-217.4667)" cy="0"
      /><circle r="4.4096" style="stroke:none;" cx="0" transform="translate(0,-248.5333)" cy="0"
      /><circle r="4.4096" style="stroke:none;" cx="0" transform="translate(0,-279.6)" cy="0"
      /><circle r="4.4096" style="stroke:none;" cx="0" transform="translate(0,-310.6666)" cy="0"
      /><circle r="4.4096" style="stroke:none;" cx="0" transform="translate(0,-341.7333)" cy="0"
      /><circle r="4.4096" style="stroke:none;" cx="0" transform="translate(0,-372.8)" cy="0"
      /><circle r="4.4096" style="stroke:none;" cx="0" transform="translate(0,-403.8666)" cy="0"
      /><circle r="4.4096" style="stroke:none;" cx="0" transform="translate(0,-434.9333)" cy="0"
      /><path d="M-3 -3 L-3 3 L3 3 L3 -3 Z" style="fill:rgb(230,159,0); stroke:none;" transform="translate(39.4117,-5.592)"
      /><path d="M-3 -3 L-3 3 L3 3 L3 -3 Z" style="fill:rgb(230,159,0); stroke:none;" transform="translate(39.4117,-36.6587)"
      /><path d="M-3 -3 L-3 3 L3 3 L3 -3 Z" style="fill:rgb(230,159,0); stroke:none;" transform="translate(39.4117,-67.7253)"
      /><path d="M-3 -3 L-3 3 L3 3 L3 -3 Z" style="fill:rgb(230,159,0); stroke:none;" transform="translate(39.4117,-98.792)"
      /><path d="M-3 -3 L-3 3 L3 3 L3 -3 Z" style="fill:rgb(230,159,0); stroke:none;" transform="translate(39.4117,-129.8586)"
      /><path d="M-3 -3 L-3 3 L3 3 L3 -3 Z" style="fill:rgb(230,159,0); stroke:none;" transform="translate(39.4117,-160.9253)"
      /><path d="M-3 -3 L-3 3 L3 3 L3 -3 Z" style="fill:rgb(230,159,0); stroke:none;" transform="translate(39.4117,-191.992)"
      /><path d="M-3 -3 L-3 3 L3 3 L3 -3 Z" style="fill:rgb(230,159,0); stroke:none;" transform="translate(29.9626,-223.0587)"
      /><path d="M-3 -3 L-3 3 L3 3 L3 -3 Z" style="fill:rgb(230,159,0); stroke:none;" transform="translate(39.4117,-254.1253)"
      /><path d="M-3 -3 L-3 3 L3 3 L3 -3 Z" style="fill:rgb(230,159,0); stroke:none;" transform="translate(39.4117,-285.192)"
      /><path d="M-3 -3 L-3 3 L3 3 L3 -3 Z" style="fill:rgb(230,159,0); stroke:none;" transform="translate(39.4117,-316.2587)"
      /><path d="M-3 -3 L-3 3 L3 3 L3 -3 Z" style="fill:rgb(230,159,0); stroke:none;" transform="translate(39.4117,-347.3253)"
      /><path d="M-3 -3 L-3 3 L3 3 L3 -3 Z" style="fill:rgb(230,159,0); stroke:none;" transform="translate(39.4117,-378.392)"
      /><path d="M-3 -3 L-3 3 L3 3 L3 -3 Z" style="fill:rgb(230,159,0); stroke:none;" transform="translate(39.4117,-409.4587)"
      /><path d="M-3 -3 L-3 3 L3 3 L3 -3 Z" style="fill:rgb(230,159,0); stroke:none;" transform="translate(39.4117,-440.5253)"
      /><path d="M0 -5.878 L-5.0903 2.939 L5.0903 2.939 Z" style="fill:rgb(0,158,115); stroke:none;" transform="translate(433.5294,-11.184)"
      /><path d="M0 -5.878 L-5.0903 2.939 L5.0903 2.939 Z" style="fill:rgb(0,158,115); stroke:none;" transform="translate(345.7227,-42.2507)"
      /><path d="M0 -5.878 L-5.0903 2.939 L5.0903 2.939 Z" style="fill:rgb(0,158,115); stroke:none;" transform="translate(340.5688,-73.3173)"
      /><path d="M0 -5.878 L-5.0903 2.939 L5.0903 2.939 Z" style="fill:rgb(0,158,115); stroke:none;" transform="translate(305.0231,-104.384)"
      /><path d="M0 -5.878 L-5.0903 2.939 L5.0903 2.939 Z" style="fill:rgb(0,158,115); stroke:none;" transform="translate(433.5294,-135.4507)"
      /><path d="M0 -5.878 L-5.0903 2.939 L5.0903 2.939 Z" style="fill:rgb(0,158,115); stroke:none;" transform="translate(433.5294,-166.5173)"
      /><path d="M0 -5.878 L-5.0903 2.939 L5.0903 2.939 Z" style="fill:rgb(0,158,115); stroke:none;" transform="translate(433.5294,-197.584)"
      /><path d="M0 -5.878 L-5.0903 2.939 L5.0903 2.939 Z" style="fill:rgb(0,158,115); stroke:none;" transform="translate(267.2462,-228.6507)"
      /><path d="M0 -5.878 L-5.0903 2.939 L5.0903 2.939 Z" style="fill:rgb(0,158,115); stroke:none;" transform="translate(433.5294,-259.7173)"
      /><path d="M0 -5.878 L-5.0903 2.939 L5.0903 2.939 Z" style="fill:rgb(0,158,115); stroke:none;" transform="translate(433.5294,-290.784)"
      /><path d="M0 -5.878 L-5.0903 2.939 L5.0903 2.939 Z" style="fill:rgb(0,158,115); stroke:none;" transform="translate(433.5294,-321.8507)"
      /><path d="M0 -5.878 L-5.0903 2.939 L5.0903 2.939 Z" style="fill:rgb(0,158,115); stroke:none;" transform="translate(339.8649,-352.9173)"
      /><path d="M0 -5.878 L-5.0903 2.939 L5.0903 2.939 Z" style="fill:rgb(0,158,115); stroke:none;" transform="translate(433.5294,-383.984)"
      /><path d="M0 -5.878 L-5.0903 2.939 L5.0903 2.939 Z" style="fill:rgb(0,158,115); stroke:none;" transform="translate(433.5294,-415.0507)"
      /><path d="M0 -5.878 L-5.0903 2.939 L5.0903 2.939 Z" style="fill:rgb(0,158,115); stroke:none;" transform="translate(433.5294,-446.1173)"
    /></g
  ></g
><g id="editable-labels" transform="scale(1.24855324 1.25000000)"><text x="90.8560" y="423.1680" font-family="宋体" font-size="13.3333" text-anchor="middle" dominant-baseline="central" fill="rgb(38,38,38)" stroke="none" transform="rotate(0.0000 90.8560 423.1680)">0</text><text x="153.8772" y="423.1680" font-family="宋体" font-size="13.3333" text-anchor="middle" dominant-baseline="central" fill="rgb(38,38,38)" stroke="none" transform="rotate(0.0000 153.8772 423.1680)">10</text><text x="216.8984" y="423.1680" font-family="宋体" font-size="13.3333" text-anchor="middle" dominant-baseline="central" fill="rgb(38,38,38)" stroke="none" transform="rotate(0.0000 216.8984 423.1680)">20</text><text x="279.9195" y="423.1680" font-family="宋体" font-size="13.3333" text-anchor="middle" dominant-baseline="central" fill="rgb(38,38,38)" stroke="none" transform="rotate(0.0000 279.9195 423.1680)">30</text><text x="342.9407" y="423.1680" font-family="宋体" font-size="13.3333" text-anchor="middle" dominant-baseline="central" fill="rgb(38,38,38)" stroke="none" transform="rotate(0.0000 342.9407 423.1680)">40</text><text x="405.9619" y="423.1680" font-family="宋体" font-size="13.3333" text-anchor="middle" dominant-baseline="central" fill="rgb(38,38,38)" stroke="none" transform="rotate(0.0000 405.9619 423.1680)">50</text><text x="468.9831" y="423.1680" font-family="宋体" font-size="13.3333" text-anchor="middle" dominant-baseline="central" fill="rgb(38,38,38)" stroke="none" transform="rotate(0.0000 468.9831 423.1680)">60</text><text x="532.0042" y="423.1680" font-family="宋体" font-size="13.3333" text-anchor="middle" dominant-baseline="central" fill="rgb(38,38,38)" stroke="none" transform="rotate(0.0000 532.0042 423.1680)">70</text><text x="595.0254" y="423.1680" font-family="宋体" font-size="13.3333" text-anchor="middle" dominant-baseline="central" fill="rgb(38,38,38)" stroke="none" transform="rotate(0.0000 595.0254 423.1680)">80</text><text x="85.8560" y="394.0626" font-family="宋体" font-size="13.3333" text-anchor="end" dominant-baseline="central" fill="rgb(38,38,38)" stroke="none" transform="rotate(0.0000 85.8560 394.0626)">S001</text><text x="85.8560" y="369.1852" font-family="宋体" font-size="13.3333" text-anchor="end" dominant-baseline="central" fill="rgb(38,38,38)" stroke="none" transform="rotate(0.0000 85.8560 369.1852)">S002</text><text x="85.8560" y="344.3078" font-family="宋体" font-size="13.3333" text-anchor="end" dominant-baseline="central" fill="rgb(38,38,38)" stroke="none" transform="rotate(0.0000 85.8560 344.3078)">S003</text><text x="85.8560" y="319.4304" font-family="宋体" font-size="13.3333" text-anchor="end" dominant-baseline="central" fill="rgb(38,38,38)" stroke="none" transform="rotate(0.0000 85.8560 319.4304)">S004</text><text x="85.8560" y="294.5529" font-family="宋体" font-size="13.3333" text-anchor="end" dominant-baseline="central" fill="rgb(38,38,38)" stroke="none" transform="rotate(0.0000 85.8560 294.5529)">S005</text><text x="85.8560" y="269.6755" font-family="宋体" font-size="13.3333" text-anchor="end" dominant-baseline="central" fill="rgb(38,38,38)" stroke="none" transform="rotate(0.0000 85.8560 269.6755)">S006</text><text x="85.8560" y="244.7981" font-family="宋体" font-size="13.3333" text-anchor="end" dominant-baseline="central" fill="rgb(38,38,38)" stroke="none" transform="rotate(0.0000 85.8560 244.7981)">S007</text><text x="85.8560" y="219.9207" font-family="宋体" font-size="13.3333" text-anchor="end" dominant-baseline="central" fill="rgb(38,38,38)" stroke="none" transform="rotate(0.0000 85.8560 219.9207)">S008</text><text x="85.8560" y="195.0432" font-family="宋体" font-size="13.3333" text-anchor="end" dominant-baseline="central" fill="rgb(38,38,38)" stroke="none" transform="rotate(0.0000 85.8560 195.0432)">S009</text><text x="85.8560" y="170.1658" font-family="宋体" font-size="13.3333" text-anchor="end" dominant-baseline="central" fill="rgb(38,38,38)" stroke="none" transform="rotate(0.0000 85.8560 170.1658)">S010</text><text x="85.8560" y="145.2884" font-family="宋体" font-size="13.3333" text-anchor="end" dominant-baseline="central" fill="rgb(38,38,38)" stroke="none" transform="rotate(0.0000 85.8560 145.2884)">S011</text><text x="85.8560" y="120.4110" font-family="宋体" font-size="13.3333" text-anchor="end" dominant-baseline="central" fill="rgb(38,38,38)" stroke="none" transform="rotate(0.0000 85.8560 120.4110)">S012</text><text x="85.8560" y="95.5336" font-family="宋体" font-size="13.3333" text-anchor="end" dominant-baseline="central" fill="rgb(38,38,38)" stroke="none" transform="rotate(0.0000 85.8560 95.5336)">S013</text><text x="85.8560" y="70.6561" font-family="宋体" font-size="13.3333" text-anchor="end" dominant-baseline="central" fill="rgb(38,38,38)" stroke="none" transform="rotate(0.0000 85.8560 70.6561)">S014</text><text x="85.8560" y="45.7787" font-family="宋体" font-size="13.3333" text-anchor="end" dominant-baseline="central" fill="rgb(38,38,38)" stroke="none" transform="rotate(0.0000 85.8560 45.7787)">S015</text><text x="358.6960" y="446.5013" font-family="宋体" font-size="13.3333" text-anchor="middle" dominant-baseline="central" fill="rgb(38,38,38)" stroke="none" transform="rotate(-0.0000 358.6960 446.5013)">最大安全载荷 (kg)</text><text x="17.5227" y="219.9207" font-family="宋体" font-size="13.3333" text-anchor="middle" dominant-baseline="central" fill="rgb(38,38,38)" stroke="none" transform="rotate(-90.0000 17.5227 219.9207)">服务区</text><text x="292.5000" y="426.4667" font-family="宋体" font-size="12.0000" text-anchor="start" dominant-baseline="central" fill="rgb(26,26,26)" stroke="none" transform="rotate(0.0000 292.5000 426.4667)">A</text><circle cx="282.5000" cy="426.4667" r="2.7" fill="rgb(0,114,178)"/><text x="349.9000" y="426.4667" font-family="宋体" font-size="12.0000" text-anchor="start" dominant-baseline="central" fill="rgb(26,26,26)" stroke="none" transform="rotate(0.0000 349.9000 426.4667)">B</text><circle cx="339.9000" cy="426.4667" r="2.7" fill="rgb(230,159,0)"/><text x="407.3000" y="426.4667" font-family="宋体" font-size="12.0000" text-anchor="start" dominant-baseline="central" fill="rgb(26,26,26)" stroke="none" transform="rotate(0.0000 407.3000 426.4667)">C</text><polygon points="397.3000,423.4667 394.3000,429.4667 400.3000,429.4667" fill="rgb(0,158,115)"/></g></svg>
