<?xml version="1.0"?>
<!DOCTYPE svg PUBLIC '-//W3C//DTD SVG 1.0//EN'
          'http://www.w3.org/TR/2001/REC-SVG-20010904/DTD/svg10.dtd'>
<svg xmlns:xlink="http://www.w3.org/1999/xlink" style="fill-opacity:1; color-rendering:auto; color-interpolation:auto; text-rendering:auto; stroke:black; stroke-linecap:square; stroke-miterlimit:10; shape-rendering:auto; stroke-opacity:1; fill:black; stroke-dasharray:none; font-weight:normal; stroke-width:1; font-family:'Dialog'; font-style:normal; stroke-linejoin:miter; font-size:12px; stroke-dashoffset:0; image-rendering:auto;" width="863" height="540" xmlns="http://www.w3.org/2000/svg"
><!--Generated by the Batik Graphics2D SVG Generator--><defs id="genericDefs"
  /><g
  ><defs id="defs1"
    ><clipPath clipPathUnits="userSpaceOnUse" id="clipPath1"
      ><path d="M0 0 L863 0 L863 540 L0 540 L0 0 Z"
      /></clipPath
    ></defs
    ><g style="fill:white; stroke:white;"
    ><rect x="0" y="0" width="863" style="clip-path:url(#clipPath1); stroke:none;" height="540"
    /></g
    ><g style="fill:white; text-rendering:optimizeSpeed; color-rendering:optimizeSpeed; image-rendering:optimizeSpeed; shape-rendering:crispEdges; stroke:white; color-interpolation:sRGB;"
    ><rect x="0" width="863" height="540" y="0" style="stroke:none;"
      /><path style="stroke:none;" d="M112 402 L782 402 L782 34 L112 34 Z"
    /></g
    ><g style="stroke-linecap:butt; fill:rgb(38,38,38); text-rendering:geometricPrecision; image-rendering:optimizeQuality; color-rendering:optimizeQuality; stroke-linejoin:round; stroke:rgb(38,38,38); color-interpolation:linearRGB; stroke-width:0.8333;"
    ><line y2="34" style="fill:none;" x1="112" x2="112" y1="402"
    /></g
    ><g style="fill:rgb(0,114,178); text-rendering:optimizeSpeed; color-rendering:optimizeSpeed; image-rendering:optimizeSpeed; shape-rendering:crispEdges; stroke:rgb(0,114,178); color-interpolation:sRGB;"
    ><path style="stroke:none;" d="M112 384.0488 L536.6759 384.0488 L536.6759 366.0976 L112 366.0976 ZM112 361.6097 L725.4869 361.6097 L725.4869 343.6585 L112 343.6585 ZM112 339.1707 L713.225 339.1707 L713.225 321.2195 L112 321.2195 ZM112 316.7317 L556.8794 316.7317 L556.8794 298.7805 L112 298.7805 ZM112 294.2927 L416.514 294.2927 L416.514 276.3415 L112 276.3415 ZM112 271.8537 L295.7374 271.8537 L295.7374 253.9024 L112 253.9024 ZM112 249.4146 L350.2625 249.4146 L350.2625 231.4634 L112 231.4634 ZM112 226.9756 L536.5114 226.9756 L536.5114 209.0244 L112 209.0244 ZM112 204.5366 L262.6976 204.5366 L262.6976 186.5854 L112 186.5854 ZM112 182.0975 L238.3792 182.0975 L238.3792 164.1463 L112 164.1463 ZM112 159.6585 L186.1734 159.6585 L186.1734 141.7073 L112 141.7073 ZM112 137.2195 L307.2149 137.2195 L307.2149 119.2683 L112 119.2683 ZM112 114.7805 L240.0895 114.7805 L240.0895 96.8293 L112 96.8293 ZM112 92.3415 L255.1551 92.3415 L255.1551 74.3903 L112 74.3903 ZM112 69.9024 L270.7338 69.9024 L270.7338 51.9512 L112 51.9512 Z"
    /></g
    ><g style="text-rendering:geometricPrecision; stroke-width:0.8333; color-interpolation:linearRGB; color-rendering:optimizeQuality; stroke-linecap:butt; image-rendering:optimizeQuality;"
    ><path d="M112 384.0488 L536.6759 384.0488 L536.6759 366.0976 L112 366.0976 Z" style="fill:none; fill-rule:evenodd;"
      /><path d="M112 361.6097 L725.4869 361.6097 L725.4869 343.6585 L112 343.6585 Z" style="fill:none; fill-rule:evenodd;"
      /><path d="M112 339.1707 L713.225 339.1707 L713.225 321.2195 L112 321.2195 Z" style="fill:none; fill-rule:evenodd;"
      /><path d="M112 316.7317 L556.8794 316.7317 L556.8794 298.7805 L112 298.7805 Z" style="fill:none; fill-rule:evenodd;"
      /><path d="M112 294.2927 L416.514 294.2927 L416.514 276.3415 L112 276.3415 Z" style="fill:none; fill-rule:evenodd;"
      /><path d="M112 271.8537 L295.7374 271.8537 L295.7374 253.9024 L112 253.9024 Z" style="fill:none; fill-rule:evenodd;"
      /><path d="M112 249.4146 L350.2625 249.4146 L350.2625 231.4634 L112 231.4634 Z" style="fill:none; fill-rule:evenodd;"
      /><path d="M112 226.9756 L536.5114 226.9756 L536.5114 209.0244 L112 209.0244 Z" style="fill:none; fill-rule:evenodd;"
      /><path d="M112 204.5366 L262.6976 204.5366 L262.6976 186.5854 L112 186.5854 Z" style="fill:none; fill-rule:evenodd;"
      /><path d="M112 182.0975 L238.3792 182.0975 L238.3792 164.1463 L112 164.1463 Z" style="fill:none; fill-rule:evenodd;"
      /><path d="M112 159.6585 L186.1734 159.6585 L186.1734 141.7073 L112 141.7073 Z" style="fill:none; fill-rule:evenodd;"
      /><path d="M112 137.2195 L307.2149 137.2195 L307.2149 119.2683 L112 119.2683 Z" style="fill:none; fill-rule:evenodd;"
      /><path d="M112 114.7805 L240.0895 114.7805 L240.0895 96.8293 L112 96.8293 Z" style="fill:none; fill-rule:evenodd;"
      /><path d="M112 92.3415 L255.1551 92.3415 L255.1551 74.3903 L112 74.3903 Z" style="fill:none; fill-rule:evenodd;"
      /><path d="M112 69.9024 L270.7338 69.9024 L270.7338 51.9512 L112 51.9512 Z" style="fill:none; fill-rule:evenodd;"
    /></g
    ><g style="fill:rgb(230,159,0); text-rendering:optimizeSpeed; color-rendering:optimizeSpeed; image-rendering:optimizeSpeed; shape-rendering:crispEdges; stroke:rgb(230,159,0); color-interpolation:sRGB;"
    ><path style="stroke:none;" d="M536.6759 384.0488 L552.2162 384.0488 L552.2162 366.0976 L536.6759 366.0976 ZM725.4869 361.6097 L739.9126 361.6097 L739.9126 343.6585 L725.4869 343.6585 ZM713.225 339.1707 L748.1191 339.1707 L748.1191 321.2195 L713.225 321.2195 ZM556.8794 316.7317 L570.0516 316.7317 L570.0516 298.7805 L556.8794 298.7805 ZM416.514 294.2927 L426.3188 294.2927 L426.3188 276.3415 L416.514 276.3415 ZM295.7374 271.8537 L305.4058 271.8537 L305.4058 253.9024 L295.7374 253.9024 ZM350.2625 249.4146 L365.9221 249.4146 L365.9221 231.4634 L350.2625 231.4634 ZM536.5114 226.9756 L546.4587 226.9756 L546.4587 209.0244 L536.5114 209.0244 ZM262.6976 204.5366 L268.053 204.5366 L268.053 186.5854 L262.6976 186.5854 ZM238.3792 182.0975 L247.7268 182.0975 L247.7268 164.1463 L238.3792 164.1463 ZM186.1734 159.6585 L191.9497 159.6585 L191.9497 141.7073 L186.1734 141.7073 ZM307.2149 137.2195 L316.9019 137.2195 L316.9019 119.2683 L307.2149 119.2683 ZM240.0895 114.7805 L247.8432 114.7805 L247.8432 96.8293 L240.0895 96.8293 ZM255.1551 92.3415 L271.34 92.3415 L271.34 74.3903 L255.1551 74.3903 ZM270.7338 69.9024 L283.777 69.9024 L283.777 51.9512 L270.7338 51.9512 Z"
    /></g
    ><g style="text-rendering:geometricPrecision; stroke-width:0.8333; color-interpolation:linearRGB; color-rendering:optimizeQuality; stroke-linecap:butt; image-rendering:optimizeQuality;"
    ><path d="M536.6759 384.0488 L552.2162 384.0488 L552.2162 366.0976 L536.6759 366.0976 Z" style="fill:none; fill-rule:evenodd;"
      /><path d="M725.4869 361.6097 L739.9126 361.6097 L739.9126 343.6585 L725.4869 343.6585 Z" style="fill:none; fill-rule:evenodd;"
      /><path d="M713.225 339.1707 L748.1191 339.1707 L748.1191 321.2195 L713.225 321.2195 Z" style="fill:none; fill-rule:evenodd;"
      /><path d="M556.8794 316.7317 L570.0516 316.7317 L570.0516 298.7805 L556.8794 298.7805 Z" style="fill:none; fill-rule:evenodd;"
      /><path d="M416.514 294.2927 L426.3188 294.2927 L426.3188 276.3415 L416.514 276.3415 Z" style="fill:none; fill-rule:evenodd;"
      /><path d="M295.7374 271.8537 L305.4058 271.8537 L305.4058 253.9024 L295.7374 253.9024 Z" style="fill:none; fill-rule:evenodd;"
      /><path d="M350.2625 249.4146 L365.9221 249.4146 L365.9221 231.4634 L350.2625 231.4634 Z" style="fill:none; fill-rule:evenodd;"
      /><path d="M536.5114 226.9756 L546.4587 226.9756 L546.4587 209.0244 L536.5114 209.0244 Z" style="fill:none; fill-rule:evenodd;"
      /><path d="M262.6976 204.5366 L268.053 204.5366 L268.053 186.5854 L262.6976 186.5854 Z" style="fill:none; fill-rule:evenodd;"
      /><path d="M238.3792 182.0975 L247.7268 182.0975 L247.7268 164.1463 L238.3792 164.1463 Z" style="fill:none; fill-rule:evenodd;"
      /><path d="M186.1734 159.6585 L191.9497 159.6585 L191.9497 141.7073 L186.1734 141.7073 Z" style="fill:none; fill-rule:evenodd;"
      /><path d="M307.2149 137.2195 L316.9019 137.2195 L316.9019 119.2683 L307.2149 119.2683 Z" style="fill:none; fill-rule:evenodd;"
      /><path d="M240.0895 114.7805 L247.8432 114.7805 L247.8432 96.8293 L240.0895 96.8293 Z" style="fill:none; fill-rule:evenodd;"
      /><path d="M255.1551 92.3415 L271.34 92.3415 L271.34 74.3903 L255.1551 74.3903 Z" style="fill:none; fill-rule:evenodd;"
      /><path d="M270.7338 69.9024 L283.777 69.9024 L283.777 51.9512 L270.7338 51.9512 Z" style="fill:none; fill-rule:evenodd;"
    /></g
    ><g style="fill:rgb(38,38,38); text-rendering:geometricPrecision; image-rendering:optimizeQuality; color-rendering:optimizeQuality; stroke-linejoin:round; stroke:rgb(38,38,38); color-interpolation:linearRGB; stroke-width:1.1667;"
    ><line y2="402" style="fill:none;" x1="112" x2="782" y1="402"
      /><line y2="34" style="fill:none;" x1="112" x2="782" y1="34"
      /><line y2="395.3" style="fill:none;" x1="112" x2="112" y1="402"
      /><line y2="395.3" style="fill:none;" x1="186.4444" x2="186.4444" y1="402"
      /><line y2="395.3" style="fill:none;" x1="260.8889" x2="260.8889" y1="402"
      /><line y2="395.3" style="fill:none;" x1="335.3333" x2="335.3333" y1="402"
      /><line y2="395.3" style="fill:none;" x1="409.7778" x2="409.7778" y1="402"
      /><line y2="395.3" style="fill:none;" x1="484.2222" x2="484.2222" y1="402"
      /><line y2="395.3" style="fill:none;" x1="558.6667" x2="558.6667" y1="402"
      /><line y2="395.3" style="fill:none;" x1="633.1111" x2="633.1111" y1="402"
      /><line y2="395.3" style="fill:none;" x1="707.5555" x2="707.5555" y1="402"
      /><line y2="395.3" style="fill:none;" x1="782" x2="782" y1="402"
      /><line y2="40.7" style="fill:none;" x1="112" x2="112" y1="34"
      /><line y2="40.7" style="fill:none;" x1="186.4444" x2="186.4444" y1="34"
      /><line y2="40.7" style="fill:none;" x1="260.8889" x2="260.8889" y1="34"
      /><line y2="40.7" style="fill:none;" x1="335.3333" x2="335.3333" y1="34"
      /><line y2="40.7" style="fill:none;" x1="409.7778" x2="409.7778" y1="34"
      /><line y2="40.7" style="fill:none;" x1="484.2222" x2="484.2222" y1="34"
      /><line y2="40.7" style="fill:none;" x1="558.6667" x2="558.6667" y1="34"
      /><line y2="40.7" style="fill:none;" x1="633.1111" x2="633.1111" y1="34"
      /><line y2="40.7" style="fill:none;" x1="707.5555" x2="707.5555" y1="34"
      /><line y2="40.7" style="fill:none;" x1="782" x2="782" y1="34"
      /><line y2="34" style="fill:none;" x1="112" x2="112" y1="402"
      /><line y2="34" style="fill:none;" x1="782" x2="782" y1="402"
      /><line y2="375.0732" style="fill:none;" x1="112" x2="118.7" y1="375.0732"
      /><line y2="352.6342" style="fill:none;" x1="112" x2="118.7" y1="352.6342"
      /><line y2="330.1951" style="fill:none;" x1="112" x2="118.7" y1="330.1951"
      /><line y2="307.7561" style="fill:none;" x1="112" x2="118.7" y1="307.7561"
      /><line y2="285.3171" style="fill:none;" x1="112" x2="118.7" y1="285.3171"
      /><line y2="262.8781" style="fill:none;" x1="112" x2="118.7" y1="262.8781"
      /><line y2="240.439" style="fill:none;" x1="112" x2="118.7" y1="240.439"
      /><line y2="218" style="fill:none;" x1="112" x2="118.7" y1="218"
      /><line y2="195.561" style="fill:none;" x1="112" x2="118.7" y1="195.561"
      /><line y2="173.1219" style="fill:none;" x1="112" x2="118.7" y1="173.1219"
      /><line y2="150.6829" style="fill:none;" x1="112" x2="118.7" y1="150.6829"
      /><line y2="128.2439" style="fill:none;" x1="112" x2="118.7" y1="128.2439"
      /><line y2="105.8049" style="fill:none;" x1="112" x2="118.7" y1="105.8049"
      /><line y2="83.3659" style="fill:none;" x1="112" x2="118.7" y1="83.3659"
      /><line y2="60.9268" style="fill:none;" x1="112" x2="118.7" y1="60.9268"
      /><line y2="375.0732" style="fill:none;" x1="782" x2="775.3" y1="375.0732"
      /><line y2="352.6342" style="fill:none;" x1="782" x2="775.3" y1="352.6342"
      /><line y2="330.1951" style="fill:none;" x1="782" x2="775.3" y1="330.1951"
      /><line y2="307.7561" style="fill:none;" x1="782" x2="775.3" y1="307.7561"
      /><line y2="285.3171" style="fill:none;" x1="782" x2="775.3" y1="285.3171"
      /><line y2="262.8781" style="fill:none;" x1="782" x2="775.3" y1="262.8781"
      /><line y2="240.439" style="fill:none;" x1="782" x2="775.3" y1="240.439"
      /><line y2="218" style="fill:none;" x1="782" x2="775.3" y1="218"
      /><line y2="195.561" style="fill:none;" x1="782" x2="775.3" y1="195.561"
      /><line y2="173.1219" style="fill:none;" x1="782" x2="775.3" y1="173.1219"
      /><line y2="150.6829" style="fill:none;" x1="782" x2="775.3" y1="150.6829"
      /><line y2="128.2439" style="fill:none;" x1="782" x2="775.3" y1="128.2439"
      /><line y2="105.8049" style="fill:none;" x1="782" x2="775.3" y1="105.8049"
      /><line y2="83.3659" style="fill:none;" x1="782" x2="775.3" y1="83.3659"
      /><line y2="60.9268" style="fill:none;" x1="782" x2="775.3" y1="60.9268"
    /></g
  ></g
><g id="editable-labels" transform="scale(1.24855324 1.25000000)"><text x="90.8560" y="336.9280" font-family="宋体" font-size="13.3333" text-anchor="middle" dominant-baseline="central" fill="rgb(38,38,38)" stroke="none" transform="rotate(0.0000 90.8560 336.9280)">0</text><text x="150.3760" y="336.9280" font-family="宋体" font-size="13.3333" text-anchor="middle" dominant-baseline="central" fill="rgb(38,38,38)" stroke="none" transform="rotate(0.0000 150.3760 336.9280)">1</text><text x="209.8960" y="336.9280" font-family="宋体" font-size="13.3333" text-anchor="middle" dominant-baseline="central" fill="rgb(38,38,38)" stroke="none" transform="rotate(0.0000 209.8960 336.9280)">2</text><text x="269.4160" y="336.9280" font-family="宋体" font-size="13.3333" text-anchor="middle" dominant-baseline="central" fill="rgb(38,38,38)" stroke="none" transform="rotate(0.0000 269.4160 336.9280)">3</text><text x="328.9360" y="336.9280" font-family="宋体" font-size="13.3333" text-anchor="middle" dominant-baseline="central" fill="rgb(38,38,38)" stroke="none" transform="rotate(0.0000 328.9360 336.9280)">4</text><text x="388.4560" y="336.9280" font-family="宋体" font-size="13.3333" text-anchor="middle" dominant-baseline="central" fill="rgb(38,38,38)" stroke="none" transform="rotate(0.0000 388.4560 336.9280)">5</text><text x="447.9760" y="336.9280" font-family="宋体" font-size="13.3333" text-anchor="middle" dominant-baseline="central" fill="rgb(38,38,38)" stroke="none" transform="rotate(0.0000 447.9760 336.9280)">6</text><text x="507.4960" y="336.9280" font-family="宋体" font-size="13.3333" text-anchor="middle" dominant-baseline="central" fill="rgb(38,38,38)" stroke="none" transform="rotate(0.0000 507.4960 336.9280)">7</text><text x="567.0160" y="336.9280" font-family="宋体" font-size="13.3333" text-anchor="middle" dominant-baseline="central" fill="rgb(38,38,38)" stroke="none" transform="rotate(0.0000 567.0160 336.9280)">8</text><text x="626.5360" y="336.9280" font-family="宋体" font-size="13.3333" text-anchor="middle" dominant-baseline="central" fill="rgb(38,38,38)" stroke="none" transform="rotate(0.0000 626.5360 336.9280)">9</text><text x="85.8560" y="298.7403" font-family="宋体" font-size="13.3333" text-anchor="end" dominant-baseline="central" fill="rgb(38,38,38)" stroke="none" transform="rotate(0.0000 85.8560 298.7403)">S001</text><text x="85.8560" y="280.8060" font-family="宋体" font-size="13.3333" text-anchor="end" dominant-baseline="central" fill="rgb(38,38,38)" stroke="none" transform="rotate(0.0000 85.8560 280.8060)">S002</text><text x="85.8560" y="262.8718" font-family="宋体" font-size="13.3333" text-anchor="end" dominant-baseline="central" fill="rgb(38,38,38)" stroke="none" transform="rotate(0.0000 85.8560 262.8718)">S003</text><text x="85.8560" y="244.9376" font-family="宋体" font-size="13.3333" text-anchor="end" dominant-baseline="central" fill="rgb(38,38,38)" stroke="none" transform="rotate(0.0000 85.8560 244.9376)">S004</text><text x="85.8560" y="227.0033" font-family="宋体" font-size="13.3333" text-anchor="end" dominant-baseline="central" fill="rgb(38,38,38)" stroke="none" transform="rotate(0.0000 85.8560 227.0033)">S005</text><text x="85.8560" y="209.0691" font-family="宋体" font-size="13.3333" text-anchor="end" dominant-baseline="central" fill="rgb(38,38,38)" stroke="none" transform="rotate(0.0000 85.8560 209.0691)">S006</text><text x="85.8560" y="191.1349" font-family="宋体" font-size="13.3333" text-anchor="end" dominant-baseline="central" fill="rgb(38,38,38)" stroke="none" transform="rotate(0.0000 85.8560 191.1349)">S007</text><text x="85.8560" y="173.2007" font-family="宋体" font-size="13.3333" text-anchor="end" dominant-baseline="central" fill="rgb(38,38,38)" stroke="none" transform="rotate(0.0000 85.8560 173.2007)">S008</text><text x="85.8560" y="155.2664" font-family="宋体" font-size="13.3333" text-anchor="end" dominant-baseline="central" fill="rgb(38,38,38)" stroke="none" transform="rotate(0.0000 85.8560 155.2664)">S009</text><text x="85.8560" y="137.3322" font-family="宋体" font-size="13.3333" text-anchor="end" dominant-baseline="central" fill="rgb(38,38,38)" stroke="none" transform="rotate(0.0000 85.8560 137.3322)">S010</text><text x="85.8560" y="119.3980" font-family="宋体" font-size="13.3333" text-anchor="end" dominant-baseline="central" fill="rgb(38,38,38)" stroke="none" transform="rotate(0.0000 85.8560 119.3980)">S011</text><text x="85.8560" y="101.4638" font-family="宋体" font-size="13.3333" text-anchor="end" dominant-baseline="central" fill="rgb(38,38,38)" stroke="none" transform="rotate(0.0000 85.8560 101.4638)">S012</text><text x="85.8560" y="83.5295" font-family="宋体" font-size="13.3333" text-anchor="end" dominant-baseline="central" fill="rgb(38,38,38)" stroke="none" transform="rotate(0.0000 85.8560 83.5295)">S013</text><text x="85.8560" y="65.5953" font-family="宋体" font-size="13.3333" text-anchor="end" dominant-baseline="central" fill="rgb(38,38,38)" stroke="none" transform="rotate(0.0000 85.8560 65.5953)">S014</text><text x="85.8560" y="47.6611" font-family="宋体" font-size="13.3333" text-anchor="end" dominant-baseline="central" fill="rgb(38,38,38)" stroke="none" transform="rotate(0.0000 85.8560 47.6611)">S015</text><text x="358.6960" y="360.2613" font-family="宋体" font-size="13.3333" text-anchor="middle" dominant-baseline="central" fill="rgb(38,38,38)" stroke="none" transform="rotate(-0.0000 358.6960 360.2613)">运输能耗 (kWh)</text><text x="17.5227" y="173.2007" font-family="宋体" font-size="13.3333" text-anchor="middle" dominant-baseline="central" fill="rgb(38,38,38)" stroke="none" transform="rotate(-90.0000 17.5227 173.2007)">服务区</text><text x="279.6000" y="340.8667" font-family="宋体" font-size="12.0000" text-anchor="start" dominant-baseline="central" fill="rgb(26,26,26)" stroke="none" transform="rotate(0.0000 279.6000 340.8667)">水平巡航</text><rect x="266.9000" y="338.1667" width="5.4" height="5.4" fill="rgb(0,114,178)"/><text x="378.6000" y="340.8667" font-family="宋体" font-size="12.0000" text-anchor="start" dominant-baseline="central" fill="rgb(26,26,26)" stroke="none" transform="rotate(0.0000 378.6000 340.8667)">爬升附加</text><rect x="365.9000" y="338.1667" width="5.4" height="5.4" fill="rgb(230,159,0)"/></g></svg>
